<svg width="1285" height="335" viewBox="0 0 1285 335" fill="none" xmlns="http://www.w3.org/2000/svg">
<rect width="1285" height="335" fill="url(#paint0_linear)"/>
<path d="M407.984 112.4H410.636V164.582H442.616V167H407.984V112.4ZM484.755 147.11H449.265C449.317 150.542 450.123 153.61 451.683 156.314C453.243 159.018 455.375 161.124 458.079 162.632C460.835 164.14 463.903 164.894 467.283 164.894C470.039 164.894 472.587 164.4 474.927 163.412C477.267 162.372 479.191 160.864 480.699 158.888L482.337 160.604C480.517 162.736 478.307 164.374 475.707 165.518C473.107 166.662 470.299 167.234 467.283 167.234C463.331 167.234 459.795 166.376 456.675 164.66C453.607 162.892 451.189 160.448 449.421 157.328C447.653 154.208 446.769 150.672 446.769 146.72C446.769 142.768 447.575 139.232 449.187 136.112C450.851 132.992 453.139 130.574 456.051 128.858C458.963 127.09 462.213 126.206 465.801 126.206C469.337 126.206 472.535 127.064 475.395 128.78C478.307 130.496 480.595 132.888 482.259 135.956C483.923 139.024 484.755 142.508 484.755 146.408V147.11ZM465.801 128.546C462.785 128.546 460.055 129.248 457.611 130.652C455.167 132.056 453.217 134.032 451.761 136.58C450.305 139.076 449.499 141.884 449.343 145.004H482.337C482.129 141.884 481.271 139.076 479.763 136.58C478.307 134.032 476.357 132.056 473.913 130.652C471.521 129.248 468.817 128.546 465.801 128.546ZM509.572 126.206C514.408 126.206 518.1 127.454 520.648 129.95C523.248 132.446 524.548 136.06 524.548 140.792V167H522.052V158.888C520.752 161.488 518.802 163.542 516.202 165.05C513.654 166.506 510.586 167.234 506.998 167.234C502.474 167.234 498.912 166.194 496.312 164.114C493.764 162.034 492.49 159.278 492.49 155.846C492.49 152.57 493.66 149.918 496 147.89C498.34 145.81 502.084 144.77 507.232 144.77H521.974V140.792C521.974 136.788 520.908 133.746 518.776 131.666C516.696 129.586 513.602 128.546 509.494 128.546C506.634 128.546 503.956 129.04 501.46 130.028C498.964 131.016 496.832 132.342 495.064 134.006L493.66 132.134C495.636 130.262 498.002 128.806 500.758 127.766C503.566 126.726 506.504 126.206 509.572 126.206ZM507.154 165.05C514.434 165.05 519.374 161.8 521.974 155.3V146.876H507.232C503.02 146.876 499.926 147.682 497.95 149.294C496.026 150.854 495.064 152.986 495.064 155.69C495.064 158.602 496.13 160.89 498.262 162.554C500.446 164.218 503.41 165.05 507.154 165.05ZM552.638 111.152C549.986 111.152 547.984 111.88 546.632 113.336C545.332 114.74 544.682 116.846 544.682 119.654V126.518H558.02V128.78H544.682V167H542.108V128.78H534.464V126.518H542.108V119.342C542.108 116.118 543.018 113.57 544.838 111.698C546.658 109.826 549.206 108.89 552.482 108.89C554.042 108.89 555.524 109.124 556.928 109.592C558.384 110.06 559.58 110.736 560.516 111.62L559.19 113.57C557.422 111.958 555.238 111.152 552.638 111.152ZM598.278 126.518L577.062 173.084C575.554 176.464 573.838 178.856 571.914 180.26C569.99 181.664 567.728 182.366 565.128 182.366C563.308 182.366 561.618 182.054 560.058 181.43C558.498 180.858 557.172 179.974 556.08 178.778L557.562 176.75C558.654 177.946 559.798 178.804 560.994 179.324C562.19 179.844 563.568 180.104 565.128 180.104C567.156 180.104 568.898 179.532 570.354 178.388C571.862 177.244 573.266 175.268 574.566 172.46L577.14 166.922L558.732 126.518H561.54L578.544 164.036L595.548 126.518H598.278ZM628.349 112.4H631.001V164.582H662.981V167H628.349V112.4ZM685.758 126.206C690.594 126.206 694.286 127.454 696.834 129.95C699.434 132.446 700.734 136.06 700.734 140.792V167H698.238V158.888C696.938 161.488 694.988 163.542 692.388 165.05C689.84 166.506 686.772 167.234 683.184 167.234C678.66 167.234 675.098 166.194 672.498 164.114C669.95 162.034 668.676 159.278 668.676 155.846C668.676 152.57 669.846 149.918 672.186 147.89C674.526 145.81 678.27 144.77 683.418 144.77H698.16V140.792C698.16 136.788 697.094 133.746 694.962 131.666C692.882 129.586 689.788 128.546 685.68 128.546C682.82 128.546 680.142 129.04 677.646 130.028C675.15 131.016 673.018 132.342 671.25 134.006L669.846 132.134C671.822 130.262 674.188 128.806 676.944 127.766C679.752 126.726 682.69 126.206 685.758 126.206ZM683.34 165.05C690.62 165.05 695.56 161.8 698.16 155.3V146.876H683.418C679.206 146.876 676.112 147.682 674.136 149.294C672.212 150.854 671.25 152.986 671.25 155.69C671.25 158.602 672.316 160.89 674.448 162.554C676.632 164.218 679.596 165.05 683.34 165.05ZM752.224 126.518V167H749.728V157.172C748.48 160.344 746.478 162.814 743.722 164.582C740.966 166.35 737.69 167.234 733.894 167.234C728.642 167.234 724.534 165.778 721.57 162.866C718.606 159.954 717.124 155.768 717.124 150.308V126.518H719.698V150.152C719.698 154.936 720.92 158.602 723.364 161.15C725.86 163.646 729.396 164.894 733.972 164.894C738.808 164.894 742.63 163.412 745.438 160.448C748.246 157.432 749.65 153.402 749.65 148.358V126.518H752.224ZM788.651 126.206C793.695 126.206 797.673 127.688 800.585 130.652C803.497 133.564 804.953 137.75 804.953 143.21V167H802.379V143.366C802.379 138.582 801.157 134.942 798.713 132.446C796.321 129.898 792.889 128.624 788.417 128.624C783.373 128.624 779.395 130.132 776.483 133.148C773.571 136.112 772.115 140.116 772.115 145.16V167H769.541V126.518H772.037V136.424C773.337 133.252 775.417 130.756 778.277 128.936C781.189 127.116 784.647 126.206 788.651 126.206ZM837.393 167.234C833.545 167.234 830.087 166.376 827.019 164.66C824.003 162.892 821.611 160.448 819.843 157.328C818.127 154.208 817.269 150.672 817.269 146.72C817.269 142.768 818.127 139.232 819.843 136.112C821.611 132.992 824.003 130.574 827.019 128.858C830.087 127.09 833.545 126.206 837.393 126.206C840.461 126.206 843.295 126.804 845.895 128C848.547 129.144 850.705 130.86 852.369 133.148L850.419 134.786C848.963 132.758 847.091 131.224 844.803 130.184C842.567 129.144 840.097 128.624 837.393 128.624C834.065 128.624 831.049 129.404 828.345 130.964C825.693 132.472 823.613 134.604 822.105 137.36C820.597 140.064 819.843 143.184 819.843 146.72C819.843 150.256 820.597 153.402 822.105 156.158C823.613 158.914 825.693 161.072 828.345 162.632C831.049 164.14 834.065 164.894 837.393 164.894C840.097 164.894 842.567 164.374 844.803 163.334C847.091 162.294 848.963 160.76 850.419 158.732L852.369 160.292C850.705 162.58 848.547 164.322 845.895 165.518C843.295 166.662 840.461 167.234 837.393 167.234ZM883.104 126.206C888.148 126.206 892.126 127.688 895.038 130.652C897.95 133.564 899.406 137.75 899.406 143.21V167H896.832V143.366C896.832 138.582 895.61 134.942 893.166 132.446C890.774 129.898 887.342 128.624 882.87 128.624C877.826 128.624 873.848 130.132 870.936 133.148C868.024 136.112 866.568 140.116 866.568 145.16V167H863.994V109.124H866.568V136.19C867.92 133.07 870.026 130.626 872.886 128.858C875.746 127.09 879.152 126.206 883.104 126.206ZM949.708 147.11H914.218C914.27 150.542 915.076 153.61 916.636 156.314C918.196 159.018 920.328 161.124 923.032 162.632C925.788 164.14 928.856 164.894 932.236 164.894C934.992 164.894 937.54 164.4 939.88 163.412C942.22 162.372 944.144 160.864 945.652 158.888L947.29 160.604C945.47 162.736 943.26 164.374 940.66 165.518C938.06 166.662 935.252 167.234 932.236 167.234C928.284 167.234 924.748 166.376 921.628 164.66C918.56 162.892 916.142 160.448 914.374 157.328C912.606 154.208 911.722 150.672 911.722 146.72C911.722 142.768 912.528 139.232 914.14 136.112C915.804 132.992 918.092 130.574 921.004 128.858C923.916 127.09 927.166 126.206 930.754 126.206C934.29 126.206 937.488 127.064 940.348 128.78C943.26 130.496 945.548 132.888 947.212 135.956C948.876 139.024 949.708 142.508 949.708 146.408V147.11ZM930.754 128.546C927.738 128.546 925.008 129.248 922.564 130.652C920.12 132.056 918.17 134.032 916.714 136.58C915.258 139.076 914.452 141.884 914.296 145.004H947.29C947.082 141.884 946.224 139.076 944.716 136.58C943.26 134.032 941.31 132.056 938.866 130.652C936.474 129.248 933.77 128.546 930.754 128.546ZM964.904 136.268C966.1 133.044 968.024 130.574 970.676 128.858C973.38 127.09 976.708 126.206 980.66 126.206V128.78H979.958C975.278 128.78 971.612 130.262 968.96 133.226C966.308 136.19 964.982 140.272 964.982 145.472V167H962.408V126.518H964.904V136.268Z" fill="#B4FFAD"/>
<path d="M124.595 257.505C95.773 177.256 96.7028 22.4616 331 45.2683" stroke="url(#paint1_linear)" stroke-width="0.8"/>
<path d="M124.414 257.457C186.608 253.043 314.924 204.418 330.639 45.2295" stroke="url(#paint2_linear)" stroke-width="0.8"/>
<path d="M95 328.764C119.512 263.14 180.442 129.82 228.065 121.531" stroke="url(#paint3_linear)" stroke-width="0.8"/>
<path d="M994.98 105.4C996.38 105.4 997.65 105.74 998.79 106.42C999.95 107.08 1000.86 108.01 1001.52 109.21C1002.18 110.39 1002.51 111.73 1002.51 113.23C1002.51 114.73 1002.18 116.08 1001.52 117.28C1000.86 118.48 999.95 119.42 998.79 120.1C997.65 120.76 996.38 121.09 994.98 121.09C993.36 121.09 991.93 120.66 990.69 119.8C989.45 118.92 988.57 117.74 988.05 116.26V121H987.45V98.74H988.05V110.2C988.57 108.74 989.45 107.58 990.69 106.72C991.95 105.84 993.38 105.4 994.98 105.4ZM994.98 120.52C996.28 120.52 997.46 120.21 998.52 119.59C999.58 118.97 1000.41 118.11 1001.01 117.01C1001.61 115.89 1001.91 114.63 1001.91 113.23C1001.91 111.83 1001.61 110.58 1001.01 109.48C1000.41 108.36 999.58 107.5 998.52 106.9C997.46 106.28 996.28 105.97 994.98 105.97C993.68 105.97 992.5 106.28 991.44 106.9C990.38 107.5 989.55 108.36 988.95 109.48C988.35 110.58 988.05 111.83 988.05 113.23C988.05 114.63 988.35 115.89 988.95 117.01C989.55 118.11 990.38 118.97 991.44 119.59C992.5 120.21 993.68 120.52 994.98 120.52ZM1020.12 113.23H1006.32C1006.32 114.63 1006.63 115.89 1007.25 117.01C1007.87 118.11 1008.72 118.97 1009.8 119.59C1010.9 120.21 1012.13 120.52 1013.49 120.52C1014.55 120.52 1015.54 120.32 1016.46 119.92C1017.4 119.5 1018.17 118.9 1018.77 118.12L1019.19 118.54C1018.51 119.36 1017.67 119.99 1016.67 120.43C1015.67 120.87 1014.61 121.09 1013.49 121.09C1012.01 121.09 1010.68 120.76 1009.5 120.1C1008.34 119.42 1007.42 118.48 1006.74 117.28C1006.08 116.08 1005.75 114.73 1005.75 113.23C1005.75 111.73 1006.06 110.39 1006.68 109.21C1007.3 108.01 1008.15 107.08 1009.23 106.42C1010.33 105.74 1011.56 105.4 1012.92 105.4C1014.26 105.4 1015.48 105.73 1016.58 106.39C1017.68 107.05 1018.54 107.96 1019.16 109.12C1019.8 110.28 1020.12 111.6 1020.12 113.08V113.23ZM1012.92 105.97C1011.72 105.97 1010.63 106.26 1009.65 106.84C1008.67 107.42 1007.88 108.22 1007.28 109.24C1006.7 110.26 1006.38 111.4 1006.32 112.66H1019.55C1019.49 111.4 1019.16 110.26 1018.56 109.24C1017.96 108.22 1017.17 107.42 1016.19 106.84C1015.21 106.26 1014.12 105.97 1012.92 105.97ZM1032.2 119.98C1031.86 120.34 1031.41 120.62 1030.85 120.82C1030.31 121 1029.75 121.09 1029.17 121.09C1027.97 121.09 1027.04 120.75 1026.38 120.07C1025.74 119.37 1025.42 118.44 1025.42 117.28V106.06H1022.42V105.49H1025.42V102.1H1026.02V105.49H1031.27V106.06H1026.02V117.13C1026.02 118.23 1026.29 119.07 1026.83 119.65C1027.37 120.23 1028.16 120.52 1029.2 120.52C1030.24 120.52 1031.1 120.2 1031.78 119.56L1032.2 119.98ZM1041.77 105.4C1043.57 105.4 1044.94 105.87 1045.88 106.81C1046.84 107.73 1047.32 109.07 1047.32 110.83V121H1046.72V117.7C1046.22 118.76 1045.46 119.59 1044.44 120.19C1043.44 120.79 1042.23 121.09 1040.81 121.09C1039.09 121.09 1037.74 120.7 1036.76 119.92C1035.8 119.12 1035.32 118.06 1035.32 116.74C1035.32 115.5 1035.75 114.5 1036.61 113.74C1037.49 112.96 1038.9 112.57 1040.84 112.57H1046.72V110.86C1046.72 109.24 1046.3 108.02 1045.46 107.2C1044.64 106.38 1043.42 105.97 1041.8 105.97C1040.68 105.97 1039.63 106.17 1038.65 106.57C1037.69 106.95 1036.86 107.47 1036.16 108.13L1035.74 107.71C1036.48 106.99 1037.38 106.43 1038.44 106.03C1039.5 105.61 1040.61 105.4 1041.77 105.4ZM1040.81 120.52C1043.69 120.52 1045.66 119.2 1046.72 116.56V113.14H1040.81C1039.13 113.14 1037.89 113.46 1037.09 114.1C1036.31 114.74 1035.92 115.61 1035.92 116.71C1035.92 117.89 1036.35 118.82 1037.21 119.5C1038.07 120.18 1039.27 120.52 1040.81 120.52Z" fill="#B4FFAD"/>
<path d="M405.66 211H407.19V232H405.66V211ZM421.678 216.22C423.638 216.22 425.188 216.79 426.328 217.93C427.468 219.07 428.038 220.71 428.038 222.85V232H426.538V222.97C426.538 221.21 426.088 219.87 425.188 218.95C424.308 218.03 423.068 217.57 421.468 217.57C419.628 217.57 418.178 218.12 417.118 219.22C416.058 220.32 415.528 221.8 415.528 223.66V232H414.028V216.34H415.468V219.73C416.008 218.63 416.808 217.77 417.868 217.15C418.948 216.53 420.218 216.22 421.678 216.22ZM438.173 232.12C436.913 232.12 435.713 231.93 434.573 231.55C433.433 231.17 432.543 230.69 431.903 230.11L432.593 228.91C433.233 229.45 434.053 229.9 435.053 230.26C436.073 230.62 437.133 230.8 438.233 230.8C439.813 230.8 440.973 230.54 441.713 230.02C442.473 229.5 442.853 228.78 442.853 227.86C442.853 227.2 442.643 226.68 442.223 226.3C441.823 225.92 441.323 225.64 440.723 225.46C440.123 225.28 439.293 225.09 438.233 224.89C436.993 224.67 435.993 224.43 435.233 224.17C434.473 223.91 433.823 223.49 433.283 222.91C432.743 222.33 432.473 221.53 432.473 220.51C432.473 219.27 432.983 218.25 434.003 217.45C435.043 216.63 436.513 216.22 438.413 216.22C439.413 216.22 440.403 216.36 441.383 216.64C442.363 216.92 443.163 217.29 443.783 217.75L443.093 218.95C442.453 218.49 441.723 218.14 440.903 217.9C440.083 217.66 439.243 217.54 438.383 217.54C436.923 217.54 435.823 217.81 435.083 218.35C434.343 218.89 433.973 219.6 433.973 220.48C433.973 221.18 434.183 221.73 434.603 222.13C435.023 222.51 435.533 222.8 436.133 223C436.753 223.18 437.613 223.38 438.713 223.6C439.933 223.82 440.913 224.06 441.653 224.32C442.413 224.56 443.053 224.96 443.573 225.52C444.093 226.08 444.353 226.85 444.353 227.83C444.353 229.13 443.813 230.17 442.733 230.95C441.653 231.73 440.133 232.12 438.173 232.12ZM456.399 216.22C457.859 216.22 459.179 216.56 460.359 217.24C461.539 217.92 462.459 218.86 463.119 220.06C463.799 221.26 464.139 222.63 464.139 224.17C464.139 225.71 463.799 227.09 463.119 228.31C462.459 229.51 461.539 230.45 460.359 231.13C459.179 231.79 457.859 232.12 456.399 232.12C455.019 232.12 453.769 231.8 452.649 231.16C451.529 230.5 450.659 229.59 450.039 228.43V237.82H448.539V216.34H449.979V220.03C450.599 218.83 451.469 217.9 452.589 217.24C453.729 216.56 454.999 216.22 456.399 216.22ZM456.309 230.77C457.509 230.77 458.589 230.49 459.549 229.93C460.509 229.37 461.259 228.59 461.799 227.59C462.359 226.59 462.639 225.45 462.639 224.17C462.639 222.89 462.359 221.75 461.799 220.75C461.259 219.75 460.509 218.97 459.549 218.41C458.589 217.85 457.509 217.57 456.309 217.57C455.109 217.57 454.029 217.85 453.069 218.41C452.129 218.97 451.379 219.75 450.819 220.75C450.279 221.75 450.009 222.89 450.009 224.17C450.009 225.45 450.279 226.59 450.819 227.59C451.379 228.59 452.129 229.37 453.069 229.93C454.029 230.49 455.109 230.77 456.309 230.77ZM468.784 216.34H470.284V232H468.784V216.34ZM469.534 212.53C469.194 212.53 468.904 212.42 468.664 212.2C468.424 211.96 468.304 211.67 468.304 211.33C468.304 210.99 468.424 210.7 468.664 210.46C468.904 210.22 469.194 210.1 469.534 210.1C469.874 210.1 470.164 210.22 470.404 210.46C470.644 210.68 470.764 210.96 470.764 211.3C470.764 211.64 470.644 211.93 470.404 212.17C470.164 212.41 469.874 212.53 469.534 212.53ZM478.046 219.76C478.526 218.62 479.276 217.75 480.296 217.15C481.316 216.53 482.556 216.22 484.016 216.22V217.69L483.656 217.66C481.916 217.66 480.556 218.21 479.576 219.31C478.596 220.39 478.106 221.9 478.106 223.84V232H476.606V216.34H478.046V219.76ZM488.149 216.34H489.649V232H488.149V216.34ZM488.899 212.53C488.559 212.53 488.269 212.42 488.029 212.2C487.789 211.96 487.669 211.67 487.669 211.33C487.669 210.99 487.789 210.7 488.029 210.46C488.269 210.22 488.559 210.1 488.899 210.1C489.239 210.1 489.529 210.22 489.769 210.46C490.009 210.68 490.129 210.96 490.129 211.3C490.129 211.64 490.009 211.93 489.769 212.17C489.529 212.41 489.239 212.53 488.899 212.53ZM503.621 216.22C505.581 216.22 507.131 216.79 508.271 217.93C509.411 219.07 509.981 220.71 509.981 222.85V232H508.481V222.97C508.481 221.21 508.031 219.87 507.131 218.95C506.251 218.03 505.011 217.57 503.411 217.57C501.571 217.57 500.121 218.12 499.061 219.22C498.001 220.32 497.471 221.8 497.471 223.66V232H495.971V216.34H497.411V219.73C497.951 218.63 498.751 217.77 499.811 217.15C500.891 216.53 502.161 216.22 503.621 216.22ZM530.286 216.34V230.32C530.286 232.92 529.656 234.84 528.396 236.08C527.136 237.32 525.236 237.94 522.696 237.94C521.256 237.94 519.896 237.72 518.616 237.28C517.336 236.84 516.306 236.23 515.526 235.45L516.336 234.31C517.116 235.03 518.056 235.59 519.156 235.99C520.256 236.39 521.426 236.59 522.666 236.59C524.746 236.59 526.286 236.09 527.286 235.09C528.286 234.11 528.786 232.58 528.786 230.5V227.86C528.146 229 527.256 229.88 526.116 230.5C524.976 231.12 523.696 231.43 522.276 231.43C520.816 231.43 519.486 231.11 518.286 230.47C517.106 229.81 516.176 228.9 515.496 227.74C514.816 226.58 514.476 225.27 514.476 223.81C514.476 222.35 514.816 221.04 515.496 219.88C516.176 218.72 517.106 217.82 518.286 217.18C519.486 216.54 520.816 216.22 522.276 216.22C523.716 216.22 525.016 216.54 526.176 217.18C527.336 217.82 528.226 218.72 528.846 219.88V216.34H530.286ZM522.396 230.08C523.616 230.08 524.716 229.82 525.696 229.3C526.676 228.76 527.436 228.02 527.976 227.08C528.536 226.12 528.816 225.03 528.816 223.81C528.816 222.59 528.536 221.51 527.976 220.57C527.436 219.63 526.676 218.9 525.696 218.38C524.716 217.84 523.616 217.57 522.396 217.57C521.176 217.57 520.076 217.84 519.096 218.38C518.136 218.9 517.376 219.63 516.816 220.57C516.276 221.51 516.006 222.59 516.006 223.81C516.006 225.03 516.276 226.12 516.816 227.08C517.376 228.02 518.136 228.76 519.096 229.3C520.076 229.82 521.176 230.08 522.396 230.08ZM536.455 232.12C536.115 232.12 535.815 232 535.555 231.76C535.315 231.5 535.195 231.19 535.195 230.83C535.195 230.47 535.315 230.17 535.555 229.93C535.815 229.69 536.115 229.57 536.455 229.57C536.795 229.57 537.085 229.69 537.325 229.93C537.585 230.17 537.715 230.47 537.715 230.83C537.715 231.19 537.585 231.5 537.325 231.76C537.085 232 536.795 232.12 536.455 232.12ZM570.686 232L570.656 214.03L561.866 229.21H561.116L552.326 214.09V232H550.826V211H552.116L561.506 227.23L570.896 211H572.156L572.186 232H570.686ZM579.028 216.34H580.528V232H579.028V216.34ZM579.778 212.53C579.438 212.53 579.148 212.42 578.908 212.2C578.668 211.96 578.548 211.67 578.548 211.33C578.548 210.99 578.668 210.7 578.908 210.46C579.148 210.22 579.438 210.1 579.778 210.1C580.118 210.1 580.408 210.22 580.648 210.46C580.888 210.68 581.008 210.96 581.008 211.3C581.008 211.64 580.888 211.93 580.648 212.17C580.408 212.41 580.118 212.53 579.778 212.53ZM594.5 216.22C596.46 216.22 598.01 216.79 599.15 217.93C600.29 219.07 600.86 220.71 600.86 222.85V232H599.36V222.97C599.36 221.21 598.91 219.87 598.01 218.95C597.13 218.03 595.89 217.57 594.29 217.57C592.45 217.57 591 218.12 589.94 219.22C588.88 220.32 588.35 221.8 588.35 223.66V232H586.85V216.34H588.29V219.73C588.83 218.63 589.63 217.77 590.69 217.15C591.77 216.53 593.04 216.22 594.5 216.22ZM607.035 216.34H608.535V232H607.035V216.34ZM607.785 212.53C607.445 212.53 607.155 212.42 606.915 212.2C606.675 211.96 606.555 211.67 606.555 211.33C606.555 210.99 606.675 210.7 606.915 210.46C607.155 210.22 607.445 210.1 607.785 210.1C608.125 210.1 608.415 210.22 608.655 210.46C608.895 210.68 609.015 210.96 609.015 211.3C609.015 211.64 608.895 211.93 608.655 212.17C608.415 212.41 608.125 212.53 607.785 212.53ZM634.358 216.22C636.298 216.22 637.818 216.79 638.918 217.93C640.038 219.07 640.598 220.71 640.598 222.85V232H639.098V222.97C639.098 221.21 638.668 219.87 637.808 218.95C636.948 218.03 635.748 217.57 634.208 217.57C632.448 217.57 631.048 218.12 630.008 219.22C628.988 220.32 628.478 221.8 628.478 223.66V232H626.978V222.97C626.978 221.21 626.548 219.87 625.688 218.95C624.828 218.03 623.628 217.57 622.088 217.57C620.328 217.57 618.928 218.12 617.888 219.22C616.868 220.32 616.358 221.8 616.358 223.66V232H614.858V216.34H616.298V219.7C616.818 218.6 617.588 217.75 618.608 217.15C619.648 216.53 620.878 216.22 622.298 216.22C623.718 216.22 624.918 216.54 625.898 217.18C626.898 217.82 627.608 218.76 628.028 220C628.548 218.84 629.358 217.92 630.458 217.24C631.578 216.56 632.878 216.22 634.358 216.22ZM652.071 216.22C654.011 216.22 655.501 216.72 656.541 217.72C657.581 218.7 658.101 220.15 658.101 222.07V232H656.661V229.21C656.161 230.13 655.431 230.85 654.471 231.37C653.511 231.87 652.361 232.12 651.021 232.12C649.281 232.12 647.901 231.71 646.881 230.89C645.881 230.07 645.381 228.99 645.381 227.65C645.381 226.35 645.841 225.3 646.761 224.5C647.701 223.68 649.191 223.27 651.231 223.27H656.601V222.01C656.601 220.55 656.201 219.44 655.401 218.68C654.621 217.92 653.471 217.54 651.951 217.54C650.911 217.54 649.911 217.72 648.951 218.08C648.011 218.44 647.211 218.92 646.551 219.52L645.801 218.44C646.581 217.74 647.521 217.2 648.621 216.82C649.721 216.42 650.871 216.22 652.071 216.22ZM651.231 230.89C652.531 230.89 653.631 230.59 654.531 229.99C655.451 229.39 656.141 228.52 656.601 227.38V224.44H651.261C649.721 224.44 648.601 224.72 647.901 225.28C647.221 225.84 646.881 226.61 646.881 227.59C646.881 228.61 647.261 229.42 648.021 230.02C648.781 230.6 649.851 230.89 651.231 230.89ZM664.282 209.74H665.782V232H664.282V209.74ZM672.104 216.34H673.604V232H672.104V216.34ZM672.854 212.53C672.514 212.53 672.224 212.42 671.984 212.2C671.744 211.96 671.624 211.67 671.624 211.33C671.624 210.99 671.744 210.7 671.984 210.46C672.224 210.22 672.514 210.1 672.854 210.1C673.194 210.1 673.484 210.22 673.724 210.46C673.964 210.68 674.084 210.96 674.084 211.3C674.084 211.64 673.964 211.93 673.724 212.17C673.484 212.41 673.194 212.53 672.854 212.53ZM683.886 232.12C682.626 232.12 681.426 231.93 680.286 231.55C679.146 231.17 678.256 230.69 677.616 230.11L678.306 228.91C678.946 229.45 679.766 229.9 680.766 230.26C681.786 230.62 682.846 230.8 683.946 230.8C685.526 230.8 686.686 230.54 687.426 230.02C688.186 229.5 688.566 228.78 688.566 227.86C688.566 227.2 688.356 226.68 687.936 226.3C687.536 225.92 687.036 225.64 686.436 225.46C685.836 225.28 685.006 225.09 683.946 224.89C682.706 224.67 681.706 224.43 680.946 224.17C680.186 223.91 679.536 223.49 678.996 222.91C678.456 222.33 678.186 221.53 678.186 220.51C678.186 219.27 678.696 218.25 679.716 217.45C680.756 216.63 682.226 216.22 684.126 216.22C685.126 216.22 686.116 216.36 687.096 216.64C688.076 216.92 688.876 217.29 689.496 217.75L688.806 218.95C688.166 218.49 687.436 218.14 686.616 217.9C685.796 217.66 684.956 217.54 684.096 217.54C682.636 217.54 681.536 217.81 680.796 218.35C680.056 218.89 679.686 219.6 679.686 220.48C679.686 221.18 679.896 221.73 680.316 222.13C680.736 222.51 681.246 222.8 681.846 223C682.466 223.18 683.326 223.38 684.426 223.6C685.646 223.82 686.626 224.06 687.366 224.32C688.126 224.56 688.766 224.96 689.286 225.52C689.806 226.08 690.066 226.85 690.066 227.83C690.066 229.13 689.526 230.17 688.446 230.95C687.366 231.73 685.846 232.12 683.886 232.12ZM702.022 231.01C701.642 231.37 701.162 231.65 700.582 231.85C700.022 232.03 699.432 232.12 698.812 232.12C697.452 232.12 696.402 231.75 695.662 231.01C694.922 230.25 694.552 229.2 694.552 227.86V217.63H691.672V216.34H694.552V212.92H696.052V216.34H701.032V217.63H696.052V227.71C696.052 228.73 696.292 229.51 696.772 230.05C697.272 230.57 698.002 230.83 698.962 230.83C699.942 230.83 700.752 230.54 701.392 229.96L702.022 231.01ZM706.205 216.34H707.705V232H706.205V216.34ZM706.955 212.53C706.615 212.53 706.325 212.42 706.085 212.2C705.845 211.96 705.725 211.67 705.725 211.33C705.725 210.99 705.845 210.7 706.085 210.46C706.325 210.22 706.615 210.1 706.955 210.1C707.295 210.1 707.585 210.22 707.825 210.46C708.065 210.68 708.185 210.96 708.185 211.3C708.185 211.64 708.065 211.93 707.825 212.17C707.585 212.41 707.295 212.53 706.955 212.53ZM720.238 232.12C718.718 232.12 717.358 231.78 716.158 231.1C714.958 230.42 714.018 229.48 713.338 228.28C712.658 227.06 712.318 225.69 712.318 224.17C712.318 222.63 712.658 221.26 713.338 220.06C714.018 218.84 714.958 217.9 716.158 217.24C717.358 216.56 718.718 216.22 720.238 216.22C721.498 216.22 722.638 216.47 723.658 216.97C724.698 217.45 725.538 218.16 726.178 219.1L725.068 219.91C724.508 219.13 723.808 218.55 722.968 218.17C722.148 217.77 721.238 217.57 720.238 217.57C719.018 217.57 717.918 217.85 716.938 218.41C715.978 218.95 715.218 219.72 714.658 220.72C714.118 221.72 713.848 222.87 713.848 224.17C713.848 225.47 714.118 226.62 714.658 227.62C715.218 228.62 715.978 229.4 716.938 229.96C717.918 230.5 719.018 230.77 720.238 230.77C721.238 230.77 722.148 230.58 722.968 230.2C723.808 229.8 724.508 229.21 725.068 228.43L726.178 229.24C725.538 230.18 724.698 230.9 723.658 231.4C722.638 231.88 721.498 232.12 720.238 232.12ZM731.074 232.12C730.734 232.12 730.434 232 730.174 231.76C729.934 231.5 729.814 231.19 729.814 230.83C729.814 230.47 729.934 230.17 730.174 229.93C730.434 229.69 730.734 229.57 731.074 229.57C731.414 229.57 731.704 229.69 731.944 229.93C732.204 230.17 732.334 230.47 732.334 230.83C732.334 231.19 732.204 231.5 731.944 231.76C731.704 232 731.414 232.12 731.074 232.12ZM750.965 232.15C749.425 232.15 747.955 231.89 746.555 231.37C745.175 230.83 744.095 230.14 743.315 229.3L744.005 228.16C744.745 228.94 745.735 229.58 746.975 230.08C748.235 230.56 749.555 230.8 750.935 230.8C752.935 230.8 754.445 230.42 755.465 229.66C756.485 228.9 756.995 227.91 756.995 226.69C756.995 225.75 756.725 225 756.185 224.44C755.645 223.88 754.975 223.45 754.175 223.15C753.375 222.85 752.295 222.54 750.935 222.22C749.395 221.84 748.155 221.47 747.215 221.11C746.295 220.75 745.505 220.2 744.845 219.46C744.205 218.7 743.885 217.69 743.885 216.43C743.885 215.41 744.155 214.48 744.695 213.64C745.235 212.78 746.055 212.1 747.155 211.6C748.275 211.1 749.665 210.85 751.325 210.85C752.485 210.85 753.625 211.02 754.745 211.36C755.865 211.7 756.835 212.16 757.655 212.74L757.085 213.97C756.245 213.39 755.315 212.95 754.295 212.65C753.295 212.35 752.305 212.2 751.325 212.2C749.385 212.2 747.915 212.59 746.915 213.37C745.915 214.15 745.415 215.16 745.415 216.4C745.415 217.34 745.685 218.09 746.225 218.65C746.765 219.21 747.435 219.64 748.235 219.94C749.035 220.24 750.125 220.56 751.505 220.9C753.045 221.28 754.275 221.65 755.195 222.01C756.115 222.37 756.895 222.92 757.535 223.66C758.195 224.38 758.525 225.36 758.525 226.6C758.525 227.62 758.245 228.55 757.685 229.39C757.145 230.23 756.305 230.9 755.165 231.4C754.025 231.9 752.625 232.15 750.965 232.15ZM763.246 216.34H764.746V232H763.246V216.34ZM763.996 212.53C763.656 212.53 763.366 212.42 763.126 212.2C762.886 211.96 762.766 211.67 762.766 211.33C762.766 210.99 762.886 210.7 763.126 210.46C763.366 210.22 763.656 210.1 763.996 210.1C764.336 210.1 764.626 210.22 764.866 210.46C765.106 210.68 765.226 210.96 765.226 211.3C765.226 211.64 765.106 211.93 764.866 212.17C764.626 212.41 764.336 212.53 763.996 212.53ZM790.569 216.22C792.509 216.22 794.029 216.79 795.129 217.93C796.249 219.07 796.809 220.71 796.809 222.85V232H795.309V222.97C795.309 221.21 794.879 219.87 794.019 218.95C793.159 218.03 791.959 217.57 790.419 217.57C788.659 217.57 787.259 218.12 786.219 219.22C785.199 220.32 784.689 221.8 784.689 223.66V232H783.189V222.97C783.189 221.21 782.759 219.87 781.899 218.95C781.039 218.03 779.839 217.57 778.299 217.57C776.539 217.57 775.139 218.12 774.099 219.22C773.079 220.32 772.569 221.8 772.569 223.66V232H771.069V216.34H772.509V219.7C773.029 218.6 773.799 217.75 774.819 217.15C775.859 216.53 777.089 216.22 778.509 216.22C779.929 216.22 781.129 216.54 782.109 217.18C783.109 217.82 783.819 218.76 784.239 220C784.759 218.84 785.569 217.92 786.669 217.24C787.789 216.56 789.089 216.22 790.569 216.22ZM810.862 216.22C812.322 216.22 813.642 216.56 814.822 217.24C816.002 217.92 816.922 218.86 817.582 220.06C818.262 221.26 818.602 222.63 818.602 224.17C818.602 225.71 818.262 227.09 817.582 228.31C816.922 229.51 816.002 230.45 814.822 231.13C813.642 231.79 812.322 232.12 810.862 232.12C809.482 232.12 808.232 231.8 807.112 231.16C805.992 230.5 805.122 229.59 804.502 228.43V237.82H803.002V216.34H804.442V220.03C805.062 218.83 805.932 217.9 807.052 217.24C808.192 216.56 809.462 216.22 810.862 216.22ZM810.772 230.77C811.972 230.77 813.052 230.49 814.012 229.93C814.972 229.37 815.722 228.59 816.262 227.59C816.822 226.59 817.102 225.45 817.102 224.17C817.102 222.89 816.822 221.75 816.262 220.75C815.722 219.75 814.972 218.97 814.012 218.41C813.052 217.85 811.972 217.57 810.772 217.57C809.572 217.57 808.492 217.85 807.532 218.41C806.592 218.97 805.842 219.75 805.282 220.75C804.742 221.75 804.472 222.89 804.472 224.17C804.472 225.45 804.742 226.59 805.282 227.59C805.842 228.59 806.592 229.37 807.532 229.93C808.492 230.49 809.572 230.77 810.772 230.77ZM823.246 209.74H824.746V232H823.246V209.74ZM844.299 224.53H830.829C830.869 225.75 831.179 226.84 831.759 227.8C832.339 228.74 833.119 229.47 834.099 229.99C835.099 230.51 836.219 230.77 837.459 230.77C838.479 230.77 839.419 230.59 840.279 230.23C841.159 229.85 841.889 229.3 842.469 228.58L843.339 229.57C842.659 230.39 841.799 231.02 840.759 231.46C839.739 231.9 838.629 232.12 837.429 232.12C835.869 232.12 834.479 231.78 833.259 231.1C832.039 230.42 831.079 229.48 830.379 228.28C829.699 227.08 829.359 225.71 829.359 224.17C829.359 222.65 829.679 221.29 830.319 220.09C830.979 218.87 831.879 217.92 833.019 217.24C834.159 216.56 835.439 216.22 836.859 216.22C838.279 216.22 839.549 216.56 840.669 217.24C841.809 217.9 842.699 218.83 843.339 220.03C843.999 221.23 844.329 222.59 844.329 224.11L844.299 224.53ZM836.859 217.54C835.759 217.54 834.769 217.79 833.889 218.29C833.009 218.77 832.299 219.46 831.759 220.36C831.239 221.24 830.939 222.24 830.859 223.36H842.859C842.799 222.24 842.499 221.24 841.959 220.36C841.419 219.48 840.709 218.79 839.829 218.29C838.949 217.79 837.959 217.54 836.859 217.54ZM848.789 232.12C848.449 232.12 848.149 232 847.889 231.76C847.649 231.5 847.529 231.19 847.529 230.83C847.529 230.47 847.649 230.17 847.889 229.93C848.149 229.69 848.449 229.57 848.789 229.57C849.129 229.57 849.419 229.69 849.659 229.93C849.919 230.17 850.049 230.47 850.049 230.83C850.049 231.19 849.919 231.5 849.659 231.76C849.419 232 849.129 232.12 848.789 232.12Z" fill="#B4FFAD"/>
<defs>
<linearGradient id="paint0_linear" x1="558" y1="204" x2="943" y2="475.5" gradientUnits="userSpaceOnUse">
<stop stop-color="#1B2137"/>
<stop offset="1" stop-color="#160728"/>
</linearGradient>
<linearGradient id="paint1_linear" x1="221.362" y1="43.0004" x2="221.362" y2="257.505" gradientUnits="userSpaceOnUse">
<stop stop-color="#00FF75"/>
<stop offset="1" stop-color="#00FFE0" stop-opacity="0"/>
</linearGradient>
<linearGradient id="paint2_linear" x1="225.96" y1="47.2667" x2="230.011" y2="255.401" gradientUnits="userSpaceOnUse">
<stop stop-color="#00FF75"/>
<stop offset="1" stop-color="#00FFE0" stop-opacity="0"/>
</linearGradient>
<linearGradient id="paint3_linear" x1="161.533" y1="121.531" x2="161.533" y2="328.764" gradientUnits="userSpaceOnUse">
<stop stop-color="#00FF75"/>
<stop offset="1" stop-color="#00FFE0" stop-opacity="0"/>
</linearGradient>
</defs>
</svg>
