<svg width="17" height="21" viewBox="0 0 17 21" fill="none" xmlns="http://www.w3.org/2000/svg">
<path fill-rule="evenodd" clip-rule="evenodd" d="M12.7695 20.3544C11.5793 20.7734 10.3091 21 8.99031 21C7.67063 21 6.39959 20.7731 5.20867 20.3535C5.75881 20.4249 5.96209 20.0371 5.96209 19.7023C5.96209 19.5566 5.95979 19.2995 5.95671 18.9556C5.95316 18.5576 5.94856 18.0434 5.94528 17.4509C2.54588 18.251 1.82873 15.6761 1.82873 15.6761C1.27349 14.1471 0.472329 13.74 0.472329 13.74C-0.637384 12.9183 0.55634 12.935 0.55634 12.935C1.78214 13.0285 2.4275 14.2994 2.4275 14.2994C3.51812 16.3225 5.2877 15.7384 5.98424 15.399C6.09498 14.5435 6.41116 13.96 6.76019 13.6291C4.04663 13.295 1.19406 12.1597 1.19406 7.08683C1.19406 5.64127 1.66987 4.45985 2.45194 3.53392C2.32592 3.1989 1.90663 1.85347 2.57108 0.0306586C2.57108 0.0306586 3.59755 -0.325168 5.93154 1.38762C6.90683 1.09381 7.95163 0.947526 8.99108 0.941551C10.029 0.94732 11.0746 1.09381 12.0506 1.38762C14.3831 -0.325168 15.4072 0.0306586 15.4072 0.0306586C16.074 1.85347 15.6547 3.1989 15.5287 3.53392C16.3123 4.45985 16.785 5.64127 16.785 7.08683C16.785 12.172 13.9279 13.2917 11.2059 13.6193C11.6443 14.028 12.0353 14.8355 12.0353 16.0709C12.0353 17.2544 12.0285 18.2846 12.024 18.9673C12.0217 19.3056 12.0201 19.5585 12.0201 19.7025C12.0201 20.0389 12.2184 20.4274 12.7695 20.3544Z" fill="#3A3A3A"/>
</svg>
