<svg width="34" height="34" viewBox="0 0 34 34" fill="none" xmlns="http://www.w3.org/2000/svg">
<path opacity="0.3" d="M30.4993 6.00108H3.50122L4.50122 27.7496H29.4993L30.4993 6.00108Z" fill="white"/>
<path opacity="0.3" d="M30.4993 6.00108H3.50122L15.9376 15.2812H18.2501L30.4993 6.00108Z" fill="white"/>
<path opacity="0.1" d="M5.75 27.75L17 17.625L28.25 27.75H5.75Z" fill="white"/>
<path fill-rule="evenodd" clip-rule="evenodd" d="M5.75096 7.87618C5.75096 6.84125 4.91252 6.00131 3.87609 6.00131C2.84116 6.00131 2.00122 6.84125 2.00122 7.87618C2.00122 11.8689 2.00122 21.1967 2.00122 25.4999C2.00122 26.7434 3.00915 27.7498 4.25106 27.7498C5.04901 27.7498 5.75096 27.7498 5.75096 27.7498C5.75096 27.7498 5.75096 13.1543 5.75096 7.87618Z" fill="white"/>
<path fill-rule="evenodd" clip-rule="evenodd" d="M28.2495 7.87595C28.2495 6.84102 29.0895 6.00108 30.1244 6.00108C30.1259 6.00108 30.1274 6.00108 30.1274 6.00108C31.1623 6.00108 31.9992 6.83952 31.9992 7.87295C31.9992 11.8642 31.9992 21.195 31.9992 25.4997C31.9992 26.7431 30.9928 27.7496 29.7494 27.7496C28.953 27.7496 28.2495 27.7496 28.2495 27.7496C28.2495 27.7496 28.2495 13.1541 28.2495 7.87595Z" fill="white"/>
<path fill-rule="evenodd" clip-rule="evenodd" d="M2.93699 9.49881C2.50652 9.24983 2.19304 8.84186 2.06405 8.36189C1.93506 7.88192 2.00256 7.37196 2.25154 6.94149C2.25154 6.94149 2.25304 6.93999 2.25304 6.93849C2.50202 6.50802 2.91149 6.19454 3.39146 6.06555C3.87142 5.93656 4.38289 6.00406 4.81336 6.25304L17 13.289L29.1896 6.25154C29.6201 6.00256 30.1301 5.93506 30.61 6.06405C31.09 6.19304 31.498 6.50652 31.747 6.93699L31.7485 6.93849C31.9974 7.36896 32.0649 7.88192 31.9359 8.36189C31.807 8.84186 31.492 9.25133 31.0615 9.50031L20.7497 15.4534L17 17.6192L13.2503 15.4534L2.93699 9.49881Z" fill="white"/>
</svg>
