<svg width="34" height="34" viewBox="0 0 34 34" fill="none" xmlns="http://www.w3.org/2000/svg">
<path fill-rule="evenodd" clip-rule="evenodd" d="M24.255 28.9671C25.9325 29.701 26.5616 28.1633 26.5616 28.1633L31 5.86636C30.9651 4.36359 28.9381 5.27224 28.9381 5.27224L4.08994 15.0228C4.08994 15.0228 2.90171 15.4421 3.00655 16.1761C3.1114 16.91 4.055 17.2595 4.055 17.2595L10.3107 19.3563C10.3107 19.3563 12.1979 25.5422 12.5823 26.7304C12.9318 27.8837 13.2464 27.9186 13.2464 27.9186C13.5958 28.0584 13.9104 27.8138 13.9104 27.8138L17.9643 24.1442L24.255 28.9671ZM25.3384 9.81546C25.3384 9.81546 26.2121 9.29124 26.1772 9.81546C26.1772 9.81546 26.317 9.88535 25.8626 10.3746C25.4433 10.794 15.5529 19.6708 14.2249 20.8591C14.1201 20.929 14.0502 21.0338 14.0502 21.1736L13.6657 24.4587C13.5958 24.8082 13.1415 24.8432 13.0367 24.5286L11.3941 19.1466C11.3242 18.9369 11.3941 18.6923 11.6038 18.5525L25.3384 9.81546Z" fill="white"/>
</svg>
